. 
 
http://www.torrenting.com          :     Once & For all ;)


               www . Torrenting . Com 

(((((((((((((= Enjoy No RAR releases =))))))))))))))))))))


...................................NFO:....................................

.








































          
          
              
              
                    
                    
                    
                    

Apollo.18.2011.R5.XviD.AC3-5.1-SiC

Poster:
[IMG]http://img651.imageshack.us/img651/6249/mv5bmtk5mtk3otk3ov5bml5.jpg[/IMG]

IMDB Link: 
http://www.imdb.com/title/tt1772240/

Description:
Decades-old found footage from NASA's abandoned Apollo 18 mission, where two American astronauts were sent on a secret expedition, reveals the reason the U.S. has never returned to the moon. 

MediaInfo:
General
Complete name                    : Apollo.18.2011.R5.DVDRip.XviD.AC3-5.1-SiC.avi
Format                           : AVI
Format/Info                      : Audio Video Interleave
File size                        : 1.59 GiB
Duration                         : 1h 23mn
Overall bit rate                 : 2 738 Kbps
Writing library                  : VirtualDub build 32839/release

Video
ID                               : 0
Format                           : MPEG-4 Visual
Format profile                   : Advanced Simple@L5
Format settings, BVOP            : 2
Format settings, QPel            : No
Format settings, GMC             : No warppoints
Format settings, Matrix          : Default (MPEG)
Muxing mode                      : Packed bitstream
Codec ID                         : XVID
Codec ID/Hint                    : XviD
Duration                         : 1h 23mn
Bit rate                         : 2 344 Kbps
Width                            : 720 pixels
Height                           : 384 pixels
Display aspect ratio             : 1.875
Frame rate                       : 25.000 fps
Color space                      : YUV
Chroma subsampling               : 4:2:0
Bit depth                        : 8 bits
Scan type                        : Progressive
Compression mode                 : Lossy
Bits/(Pixel*Frame)               : 0.339
Stream size                      : 1.36 GiB (86%)
Writing library                  : XviD 64

Audio
ID                               : 1
Format                           : AC-3
Format/Info                      : Audio Coding 3
Mode extension                   : CM (complete main)
Codec ID                         : 2000
Duration                         : 1h 23mn
Bit rate mode                    : Constant
Bit rate                         : 384 Kbps
Channel(s)                       : 6 channels
Channel positions                : Front: L C R, Side: L R, LFE
Sampling rate                    : 48.0 KHz
Bit depth                        : 16 bits
Compression mode                 : Lossy
Stream size                      : 228 MiB (14%)
Alignment                        : Split accross interleaves
Interleave, duration             : 40 ms (1.00 video frame)
Interleave, preload duration     : 500 ms


Screenshots:
[IMG]http://img408.imageshack.us/img408/5724/snap1s.png[/IMG]
[IMG]http://img850.imageshack.us/img850/4808/snap2c.png[/IMG]
[IMG]http://img100.imageshack.us/img100/341/snap3lz.png[/IMG]
[IMG]http://img24.imageshack.us/img24/396/snap4l.png[/IMG]
[IMG]http://img684.imageshack.us/img684/4831/snap5v.png[/IMG]


Note : Did my thng, turned out nice enjoy.

Source: UG thnx, MiSTERE thnx and HiVE thnx

Enjoy!

Respects to CaptainHomey, Cyanide, CM8, Rx, THC, ELEKTRI4KA, 
Killerhz, PA, YeFsTe, BoxSlots, MrRep and everyone in the struggle...